<?xml version="1.0" standalone="no"?>
<!DOCTYPE svg PUBLIC "-//W3C//DTD SVG 20010904//EN"
 "http://www.w3.org/TR/2001/REC-SVG-20010904/DTD/svg10.dtd">
<svg version="1.0" xmlns="http://www.w3.org/2000/svg"
 width="3126.000000pt" height="3126.000000pt" viewBox="0 0 3126.000000 3126.000000"
 preserveAspectRatio="xMidYMid meet">
<metadata>
Created by potrace 1.14, written by Peter Selinger 2001-2017
</metadata>
<g transform="translate(0.000000,3126.000000) scale(0.100000,-0.100000)"
fill="#000000" stroke="none">
<path d="M15249 31245 c-2 -1 -83 -6 -179 -10 -96 -4 -195 -8 -220 -10 -25 -2
-85 -6 -135 -9 -87 -6 -202 -15 -275 -21 -19 -2 -71 -6 -115 -10 -44 -4 -91
-8 -105 -10 -14 -2 -54 -6 -90 -10 -36 -3 -81 -8 -100 -10 -19 -2 -60 -7 -90
-10 -30 -4 -66 -8 -80 -10 -14 -2 -50 -6 -80 -10 -62 -7 -86 -11 -150 -20 -77
-11 -94 -14 -140 -20 -44 -6 -264 -41 -325 -51 -79 -14 -203 -35 -225 -39 -37
-5 -463 -92 -545 -110 -38 -9 -81 -18 -95 -21 -14 -3 -52 -12 -85 -21 -33 -8
-69 -17 -80 -19 -11 -2 -49 -11 -84 -20 -36 -9 -72 -17 -80 -19 -9 -2 -52 -13
-96 -24 -44 -12 -91 -24 -105 -27 -14 -3 -45 -12 -70 -19 -40 -13 -118 -34
-145 -41 -5 -1 -44 -12 -85 -24 -41 -11 -82 -23 -90 -25 -102 -26 -854 -273
-950 -312 -8 -3 -19 -7 -25 -8 -10 -3 -114 -43 -285 -109 -47 -19 -112 -44
-145 -57 -33 -13 -71 -29 -85 -36 -14 -7 -28 -13 -31 -13 -4 0 -85 -33 -180
-74 -166 -70 -202 -86 -329 -144 -30 -14 -82 -37 -115 -52 -33 -15 -96 -44
-140 -65 -99 -46 -536 -265 -590 -295 -22 -12 -80 -44 -130 -70 -49 -26 -108
-58 -130 -70 -22 -12 -74 -42 -115 -65 -41 -23 -97 -54 -125 -70 -27 -15 -144
-85 -259 -154 -114 -69 -216 -130 -225 -136 -249 -149 -968 -644 -1151 -792
-8 -6 -67 -51 -130 -99 -63 -49 -119 -91 -125 -96 -5 -4 -26 -20 -45 -36 -19
-16 -107 -87 -195 -159 -88 -71 -178 -145 -199 -164 -22 -19 -62 -54 -90 -78
-108 -94 -193 -168 -246 -216 -30 -27 -77 -70 -104 -95 -198 -178 -515 -488
-786 -769 -67 -70 -237 -256 -340 -371 -36 -40 -70 -78 -75 -84 -6 -6 -37 -42
-70 -81 -33 -38 -65 -76 -72 -83 -7 -7 -29 -34 -50 -60 -21 -26 -41 -49 -44
-52 -24 -20 -369 -453 -509 -640 -593 -788 -1066 -1555 -1508 -2440 -119 -239
-181 -369 -237 -493 -12 -29 -36 -81 -53 -117 -55 -122 -218 -515 -281 -680
-35 -91 -67 -174 -72 -185 -50 -114 -299 -855 -339 -1010 -4 -16 -19 -68 -33
-115 -32 -106 -111 -395 -131 -475 -82 -333 -106 -439 -166 -730 -41 -201 -47
-229 -56 -285 -3 -19 -7 -42 -9 -50 -2 -8 -7 -31 -10 -50 -3 -19 -10 -57 -15
-85 -5 -27 -12 -66 -14 -85 -3 -19 -8 -46 -10 -60 -9 -50 -27 -166 -30 -195
-2 -16 -11 -79 -20 -140 -9 -60 -19 -128 -21 -150 -3 -22 -7 -56 -10 -75 -3
-19 -7 -54 -10 -77 -3 -24 -7 -60 -10 -80 -2 -21 -7 -65 -10 -98 -3 -33 -8
-73 -10 -90 -2 -16 -7 -59 -10 -95 -3 -36 -7 -85 -9 -110 -5 -52 -16 -175 -21
-240 -2 -25 -7 -90 -10 -145 -3 -55 -8 -127 -10 -160 -13 -203 -19 -466 -19
-880 0 -414 4 -585 19 -875 9 -173 33 -489 50 -650 3 -25 7 -65 9 -90 5 -50
15 -137 21 -190 2 -19 6 -57 9 -85 4 -27 8 -68 11 -90 4 -42 12 -99 20 -150 3
-16 7 -48 10 -70 3 -22 7 -53 10 -70 3 -16 7 -48 10 -70 34 -236 82 -504 142
-795 24 -118 46 -225 49 -238 2 -12 14 -62 25 -110 12 -48 23 -96 25 -107 6
-34 43 -182 94 -380 18 -66 33 -127 36 -135 78 -312 272 -915 439 -1365 244
-656 602 -1437 925 -2020 18 -33 44 -80 57 -105 117 -211 360 -618 478 -800
13 -19 76 -116 141 -214 66 -98 124 -186 129 -195 24 -40 211 -301 370 -518
78 -107 323 -423 334 -433 3 -3 33 -39 65 -80 56 -71 195 -239 206 -250 3 -3
28 -32 55 -65 28 -33 57 -67 65 -75 8 -8 44 -49 79 -90 36 -41 69 -79 75 -85
6 -5 29 -30 50 -55 114 -132 293 -318 580 -605 283 -282 398 -392 590 -565 28
-25 57 -51 65 -59 76 -71 469 -401 651 -547 203 -163 562 -430 794 -592 133
-93 283 -195 311 -212 13 -8 86 -55 162 -104 76 -49 161 -104 188 -121 203
-131 648 -386 997 -574 146 -78 720 -361 733 -361 2 0 47 -21 102 -46 132 -62
404 -178 593 -254 85 -34 169 -67 185 -74 17 -7 89 -34 160 -61 72 -26 144
-53 160 -60 76 -32 509 -177 780 -260 148 -46 178 -55 465 -133 196 -54 519
-134 720 -177 179 -39 505 -105 550 -111 8 -1 26 -4 40 -7 54 -11 153 -28 181
-32 17 -2 42 -6 57 -9 15 -3 41 -8 57 -10 51 -8 158 -24 200 -30 22 -4 51 -8
65 -11 14 -2 48 -7 75 -10 48 -6 64 -8 145 -19 19 -3 62 -8 95 -11 33 -4 71
-8 85 -11 14 -2 72 -8 130 -14 58 -6 123 -13 145 -15 22 -3 67 -7 100 -10 33
-2 87 -7 120 -10 77 -7 159 -13 265 -20 47 -3 114 -8 150 -10 373 -27 1561
-27 1830 -1 19 2 85 7 145 10 61 4 133 9 160 11 28 3 79 7 115 10 36 3 88 7
115 10 28 2 79 7 115 10 36 3 72 8 80 10 8 2 50 6 93 10 43 4 88 8 100 10 12
2 49 6 82 10 33 3 74 8 90 10 45 7 315 45 355 51 39 5 43 6 180 29 52 9 106
18 120 20 116 19 243 42 365 67 55 11 109 22 120 24 11 2 31 6 45 9 14 3 34 7
45 9 157 32 468 105 650 153 72 18 137 35 145 37 8 2 42 11 75 20 33 9 67 18
76 20 35 9 342 100 449 133 63 20 120 38 125 39 59 11 837 287 943 334 12 6
32 14 45 19 12 5 81 33 152 61 142 57 443 187 570 245 225 103 301 140 540
261 248 125 389 198 465 241 19 11 62 35 95 53 284 156 675 392 925 556 58 38
109 71 114 73 14 6 453 311 556 386 189 139 233 172 358 268 70 54 134 103
142 110 8 7 60 48 115 92 55 44 109 87 120 97 71 58 222 184 231 193 7 5 38
33 70 60 85 72 329 290 399 355 33 31 96 90 139 131 130 122 533 526 656 658
202 218 222 239 319 351 41 47 77 87 81 90 3 3 66 77 140 165 74 88 137 162
140 165 27 25 499 636 583 755 15 22 52 74 82 115 102 140 482 714 594 898
107 176 358 609 395 682 9 19 37 71 61 115 62 111 308 602 383 763 34 74 106
234 158 355 53 122 102 236 109 252 67 153 251 637 311 815 8 25 18 52 21 60
4 8 7 17 8 20 0 3 33 102 72 220 119 358 236 765 318 1105 25 105 50 206 55
225 6 19 12 46 14 60 3 14 11 54 20 90 8 36 17 76 20 90 3 14 19 93 36 175 17
83 33 161 36 175 2 14 7 41 10 60 6 36 10 56 19 100 3 14 14 79 25 145 11 66
22 131 24 145 3 14 7 43 10 65 4 22 8 51 11 65 2 14 6 41 9 60 3 19 9 58 13
85 10 65 10 4395 0 4460 -4 28 -10 66 -13 85 -8 56 -63 393 -68 416 -2 12 -7
39 -10 60 -4 22 -11 62 -16 89 -6 28 -12 61 -15 75 -17 85 -35 178 -39 195 -2
11 -12 56 -21 100 -9 44 -18 87 -20 95 -2 8 -11 49 -20 90 -9 41 -34 149 -57
240 -22 91 -41 172 -43 180 -4 17 -74 279 -79 295 -1 6 -6 24 -11 40 -82 311
-349 1131 -430 1320 -7 17 -34 86 -60 155 -253 664 -622 1434 -1011 2111 -116
203 -286 483 -335 556 -16 23 -29 44 -29 46 0 13 -397 601 -484 717 -23 30
-49 68 -59 83 -10 16 -25 36 -32 45 -8 9 -45 58 -82 108 -98 132 -329 431
-343 444 -3 3 -17 21 -32 40 -14 19 -34 44 -44 55 -11 11 -48 56 -84 100 -35
44 -69 85 -75 91 -5 6 -30 35 -55 64 -65 78 -252 292 -270 310 -8 8 -37 40
-64 70 -254 283 -707 739 -1005 1010 -51 47 -101 92 -110 101 -9 9 -59 53
-111 99 -52 45 -108 94 -125 109 -248 218 -785 644 -1070 847 -236 169 -327
231 -520 359 -190 126 -414 268 -557 354 -55 33 -375 220 -413 241 -22 12 -83
46 -135 75 -238 134 -1018 525 -1046 525 -2 0 -36 15 -76 34 -115 53 -153 70
-323 141 -88 37 -173 73 -190 81 -16 7 -70 29 -120 48 -49 18 -130 49 -180 69
-49 19 -124 47 -165 62 -41 14 -84 30 -95 35 -11 5 -49 19 -85 30 -36 12 -74
26 -85 31 -60 26 -601 199 -770 246 -5 1 -57 16 -115 33 -222 64 -624 166
-875 221 -115 25 -314 67 -351 73 -16 3 -54 10 -84 16 -30 6 -64 13 -75 15
-21 4 -139 25 -277 49 -46 8 -101 17 -123 20 -57 8 -117 18 -140 22 -11 3 -38
6 -60 9 -36 5 -96 13 -135 20 -8 1 -42 6 -75 10 -33 4 -69 9 -80 10 -27 4
-109 14 -170 20 -27 3 -66 8 -85 10 -57 8 -209 23 -294 30 -28 3 -73 7 -101 9
-27 3 -88 8 -135 11 -47 3 -110 8 -140 10 -30 3 -100 7 -155 10 -55 3 -145 8
-200 11 -111 7 -1241 15 -1246 9z"/>
</g>
</svg>
